<svg xmlns="http://www.w3.org/2000/svg" version="1.1" xmlns:xlink="http://www.w3.org/1999/xlink" viewBox="0 0 200 200"><rect width="200" height="200" fill="url('#gradient')"></rect><defs><linearGradient id="gradient" gradientTransform="rotate(89 0.5 0.5)"><stop offset="0%" stop-color="#7dabaa"></stop><stop offset="100%" stop-color="#f5e8ce"></stop></linearGradient></defs><g><g fill="#2c1f37" transform="matrix(4.633714569865738,0,0,4.633714569865738,9.133484507107966,132.9499671567085)" stroke="#15374d" stroke-width="0"><path d="M9.98 0L9.15-2.66L4.45-2.66L3.63 0L-0.03 0L5.19-14.22L8.41-14.22L13.66 0L9.98 0ZM6.80-10.23L5.27-5.30L8.33-5.30L6.80-10.23ZM20.31-4.82L18.13-4.82L18.13 0L14.70 0L14.70-14.22L20.37-14.22Q22.00-14.22 23.26-13.62Q24.51-13.02 25.20-11.91Q25.89-10.80 25.89-9.39L25.89-9.39Q25.89-7.31 24.40-6.07Q22.91-4.82 20.31-4.82L20.31-4.82ZM18.13-11.57L18.13-7.47L20.37-7.47Q21.37-7.47 21.89-7.97Q22.41-8.47 22.41-9.38L22.41-9.38Q22.41-10.37 21.88-10.97Q21.34-11.56 20.41-11.57L20.41-11.57L18.13-11.57ZM35.81-4.81L39.22-4.81Q39.15-3.33 38.42-2.19Q37.69-1.05 36.36-0.43Q35.04 0.20 33.34 0.20L33.34 0.20Q30.54 0.20 28.93-1.63Q27.31-3.46 27.31-6.79L27.31-6.79L27.31-7.49Q27.31-9.58 28.04-11.15Q28.77-12.71 30.14-13.57Q31.50-14.42 33.30-14.42L33.30-14.42Q35.89-14.42 37.46-13.06Q39.03-11.70 39.25-9.31L39.25-9.31L35.83-9.31Q35.79-10.61 35.18-11.17Q34.56-11.74 33.30-11.74L33.30-11.74Q32.02-11.74 31.43-10.78Q30.83-9.82 30.80-7.72L30.80-7.72L30.80-6.72Q30.80-4.44 31.37-3.47Q31.94-2.49 33.34-2.49L33.34-2.49Q34.52-2.49 35.15-3.05Q35.77-3.60 35.81-4.81L35.81-4.81Z"></path></g></g></svg>