<svg xmlns="http://www.w3.org/2000/svg" version="1.1" xmlns:xlink="http://www.w3.org/1999/xlink" width="200" height="200"><svg xmlns="http://www.w3.org/2000/svg" version="1.1" xmlns:xlink="http://www.w3.org/1999/xlink" width="200" height="200"><svg xmlns="http://www.w3.org/2000/svg" version="1.1" xmlns:xlink="http://www.w3.org/1999/xlink" viewBox="0 0 200 200"><rect width="200" height="200" fill="url('#gradient')"></rect><defs><linearGradient id="gradient" gradientTransform="rotate(360 0.5 0.5)"><stop offset="0%" stop-color="#ceaa96"></stop><stop offset="100%" stop-color="#8fa983"></stop></linearGradient></defs><g><g fill="#445272" transform="matrix(2.395010395010395,0,0,2.395010395010395,7.430501855336708,117.0278990947779)" stroke="#c8512e" stroke-width="0.2"><path d="M9.89-8.57L9.89-6.03L4.50-6.03L4.50-2.64L10.87-2.64L10.87 0L1.07 0L1.07-14.22L10.89-14.22L10.89-11.57L4.50-11.57L4.50-8.57L9.89-8.57ZM15.24-14.22L17.57-9.49L19.89-14.22L23.81-14.22L19.83-7.17L23.92 0L19.96 0L17.57-4.81L15.18 0L11.23 0L15.30-7.17L11.34-14.22L15.24-14.22ZM25.03-14.22L29.53-14.22L32.71-4.33L35.87-14.22L40.38-14.22L40.38 0L36.94 0L36.94-3.32L37.28-10.12L33.84 0L31.57 0L28.13-10.13L28.46-3.32L28.46 0L25.03 0L25.03-14.22ZM48.17-4.82L45.99-4.82L45.99 0L42.56 0L42.56-14.22L48.23-14.22Q49.86-14.22 51.12-13.62Q52.37-13.02 53.06-11.91Q53.75-10.80 53.75-9.39L53.75-9.39Q53.75-7.31 52.26-6.07Q50.77-4.82 48.17-4.82L48.17-4.82ZM45.99-11.57L45.99-7.47L48.23-7.47Q49.23-7.47 49.75-7.97Q50.27-8.47 50.27-9.38L50.27-9.38Q50.27-10.37 49.74-10.97Q49.20-11.56 48.27-11.57L48.27-11.57L45.99-11.57ZM59.00-14.22L59.00-2.64L64.97-2.64L64.97 0L55.58 0L55.58-14.22L59.00-14.22ZM75.23-8.57L75.23-6.03L69.84-6.03L69.84-2.64L76.21-2.64L76.21 0L66.42 0L66.42-14.22L76.23-14.22L76.23-11.57L69.84-11.57L69.84-8.57L75.23-8.57Z"></path></g></g></svg></svg><style>@media (prefers-color-scheme: light) { :root { filter: none; } }
@media (prefers-color-scheme: dark) { :root { filter: none; } }
</style></svg>